<svg width="1920" height="1660" viewBox="0 0 1920 1660" fill="none" xmlns="http://www.w3.org/2000/svg">
<path d="M-136 1313.11V326C-13.3646 423.297 122.131 510.27 270.273 593.354C488.516 715.706 718.204 811.881 960 879.798V1659.91C563.167 1608.69 198.416 1491.98 -136 1313.11Z" fill="#93CADF"/>
<path d="M-136 1313.11V326C-13.3646 423.297 122.131 510.27 270.273 593.354C488.516 715.706 718.204 811.881 960 879.798V1659.91C563.167 1608.69 198.416 1491.98 -136 1313.11Z" fill="#93CADF"/>
<path d="M960 710.2C1381.81 557.95 1745.33 317.975 2056 0V991.375C1854.71 1117.25 1636.3 1219.84 1400.25 1298.49C1254.85 1346.94 1108.03 1381.09 960 1403.27L960 710.2Z" fill="#93CADF"/>
<path d="M960 710.2C1381.81 557.95 1745.33 317.975 2056 0V991.375C1854.71 1117.25 1636.3 1219.84 1400.25 1298.49C1254.85 1346.94 1108.03 1381.09 960 1403.27L960 710.2Z" fill="#93CADF"/>
</svg>
